Coordinates
version=1
nRows=7
nColumns=63
inDegrees=yes

Units are S.I. units (second, meters, Newtons, ...)
If the header above contains a line with 'inDegrees', this indicates whether rotational values are in degrees (yes) or radians (no).

endheader
time	pelvis_tilt	pelvis_list	pelvis_rotation	pelvis_tx	pelvis_ty	pelvis_tz	hip_flexion_r	hip_adduction_r	hip_rotation_r	knee_angle_r	knee_angle_r_beta	ankle_angle_r	subtalar_angle_r	mtp_angle_r	hip_flexion_l	hip_adduction_l	hip_rotation_l	knee_angle_l	knee_angle_l_beta	ankle_angle_l	subtalar_angle_l	mtp_angle_l	L5_S1_Flex_Ext	L5_S1_Lat_Bending	L5_S1_axial_rotation	L4_L5_Flex_Ext	L4_L5_Lat_Bending	L4_L5_axial_rotation	L3_L4_Flex_Ext	L3_L4_Lat_Bending	L3_L4_axial_rotation	L2_L3_Flex_Ext	L2_L3_Lat_Bending	L2_L3_axial_rotation	L1_L2_Flex_Ext	L1_L2_Lat_Bending	L1_L2_axial_rotation	L1_T12_Flex_Ext	L1_T12_Lat_Bending	L1_T12_axial_rotation	Abs_r3	Abs_r2	Abs_r1	Abs_t1	Abs_t2	neck_flexion	neck_bending	neck_rotation	arm_flex_r	arm_add_r	arm_rot_r	elbow_flex_r	pro_sup_r	wrist_flex_r	wrist_dev_r	arm_flex_l	arm_add_l	arm_rot_l	elbow_flex_l	pro_sup_l	wrist_flex_l	wrist_dev_l
      7.50000000	    -53.56664504	     -3.01069271	     -4.24837919	     -0.25644945	      1.01713760	      0.00853749	    112.68092369	     -1.48402008	      2.53532852	    114.21508621	      1.99342931	     14.71174509	      0.35964773	      0.00000000	     97.59156004	     -6.63417166	      7.44552610	     54.72024246	      0.95504840	      9.03524680	      3.31919252	      0.00000000	     -0.07378833	      0.44898152	      0.80268384	     -0.13703231	      0.59714542	      0.85285158	     -0.12122685	      1.09165366	      0.85285158	     -0.08433268	      1.09165366	      0.70234836	     -0.06851984	      0.91556311	      0.65218062	     -0.04216265	      0.69547237	      0.60201288	     -0.52706266	      5.07896874	      4.46428670	      0.00000000	      0.00000000	     -0.00000000	      0.00000000	      0.00000000	     80.25132634	    -14.53774372	     40.83066506	     22.82615107	     33.06388400	      0.00000000	      5.00000014	     73.89093648	    -14.00090734	     29.10921100	     31.84770154	     46.05252604	      0.00000000	      5.00000014
      7.50800000	    -53.51443783	     -3.01553904	     -4.36871141	     -0.25585552	      1.01695021	      0.00792668	    114.00887028	     -1.53570192	      2.57259459	    115.59175369	      2.01745669	     15.26925650	      0.70496753	      0.00000000	     95.92476359	     -6.74142743	      7.65247512	     53.00010898	      0.92502641	      9.47751303	      3.90727014	      0.00000000	     -0.07320633	      0.47107145	      0.81542400	     -0.13595147	      0.62652502	      0.86638800	     -0.12027068	      1.14536311	      0.86638800	     -0.08366751	      1.14536311	      0.71349600	     -0.06797940	      0.96060889	      0.66253200	     -0.04183010	      0.72968967	      0.61156800	     -0.52290548	      5.32885442	      4.53514364	      0.00000000	      0.00000000	     -0.00000000	      0.00000000	      0.00000000	     80.30549975	    -14.45558973	     41.04909777	     22.82853631	     33.10662902	      0.00000000	      5.00000014	     73.73148633	    -14.02924552	     28.83950707	     31.77435097	     45.99761721	      0.00000000	      5.00000014
      7.51700000	    -53.49565618	     -3.14387297	     -4.76660166	     -0.25540311	      1.01695512	      0.00769804	    115.28525766	     -1.35069101	      2.30063027	    116.67444651	      2.03635324	     15.62286657	      0.71312716	      0.00000000	     94.45636578	     -7.12129458	      7.92188973	     51.55927445	      0.89987910	      9.37886406	      3.95561481	      0.00000000	     -0.07363888	      0.50885204	      0.88972248	     -0.13675476	      0.67677321	      0.94533013	     -0.12098131	      1.23722284	      0.94533013	     -0.08416187	      1.23722284	      0.77850717	     -0.06838106	      1.03765107	      0.72289951	     -0.04207725	      0.78821181	      0.66729186	     -0.52599514	      5.75623601	      4.94836950	      0.00000000	      0.00000000	     -0.00000000	      0.00000000	      0.00000000	     80.36862932	    -14.43028705	     41.09446015	     22.82778410	     33.13142087	      0.00000000	      5.00000014	     73.60465616	    -14.02502478	     28.76589927	     31.72818964	     45.98202448	      0.00000000	      5.00000014
      7.52500000	    -53.48723354	     -3.21048926	     -5.10133508	     -0.25500312	      1.01700181	      0.00756316	    116.56632258	     -1.20151148	      2.07484437	    117.60648499	      2.05262038	     15.95244127	      0.67889364	      0.00000000	     93.04773864	     -7.41927837	      8.19751784	     50.27714422	      0.87750171	      9.43623575	      3.97606451	      0.00000000	     -0.07288729	      0.53465833	      0.95167584	     -0.13535899	      0.71109558	      1.01115558	     -0.11974654	      1.29996827	      1.01115558	     -0.08330289	      1.29996827	      0.83271636	     -0.06768314	      1.09027527	      0.77323662	     -0.04164780	      0.82818576	      0.71375688	     -0.52062665	      6.04816199	      5.29293554	      0.00000000	      0.00000000	     -0.00000000	      0.00000000	      0.00000000	     80.39933656	    -14.38290209	     41.14244995	     22.78625703	     33.15345922	      0.00000000	      5.00000014	     73.49151607	    -13.99778862	     28.65286870	     31.63159727	     45.95989616	      0.00000000	      5.00000014
      7.53300000	    -53.49118170	     -3.23735813	     -5.40809607	     -0.25479779	      1.01710004	      0.00763089	    117.85974943	     -1.04818744	      1.85234918	    118.33687813	      2.06536815	     16.26490902	      0.58794807	      0.00000000	     91.73363666	     -7.69004539	      8.43643218	     49.16172118	      0.85803390	      9.57701358	      3.98143296	      0.00000000	     -0.07375972	      0.55027026	      1.00723158	     -0.13697917	      0.73185945	      1.07018355	     -0.12117984	      1.33792712	      1.07018355	     -0.08429998	      1.33792712	      0.88132763	     -0.06849327	      1.12211112	      0.81837566	     -0.04214630	      0.85236864	      0.75542368	     -0.52685828	      6.22476726	      5.60191985	      0.00000000	      0.00000000	     -0.00000000	      0.00000000	      0.00000000	     80.45416352	    -14.32561145	     41.18331940	     22.70838062	     33.17210590	      0.00000000	      5.00000014	     73.45626383	    -13.95604832	     28.47349574	     31.50715151	     45.92676260	      0.00000000	      5.00000014
      7.54200000	    -53.49929053	     -3.24964897	     -5.71216200	     -0.25464928	      1.01721867	      0.00787592	    119.11320529	     -0.87787503	      1.61222830	    118.85157315	      2.07435127	     16.56160487	      0.41562759	      0.00000000	     90.55027358	     -7.98642584	      8.58752846	     48.28571590	      0.84274472	      9.68509767	      3.97203790	      0.00000000	     -0.07404152	      0.56167931	      1.06456236	     -0.13750252	      0.74703348	      1.13109751	     -0.12164282	      1.36566708	      1.13109751	     -0.08462206	      1.36566708	      0.93149206	     -0.06875496	      1.14537645	      0.86495692	     -0.04230733	      0.87004125	      0.79842177	     -0.52887121	      6.35382870	      5.92077647	      0.00000000	      0.00000000	     -0.00000000	      0.00000000	      0.00000000	     80.48743108	    -14.25985712	     41.21400033	     22.60779721	     33.18590369	      0.00000000	      5.00000014	     73.42359559	    -13.90031552	     28.25405692	     31.37163917	     45.88635003	      0.00000000	      5.00000014
      7.55000000	    -53.51286004	     -3.28357202	     -5.99991039	     -0.25456177	      1.01730756	      0.00826070	    120.33884841	     -0.71867063	      1.35598828	    119.16597052	      2.07983854	     16.82743456	      0.19345476	      0.00000000	     89.53806480	     -8.29886527	      8.62799668	     47.69166256	      0.83237654	      9.69042880	      3.94221837	      0.00000000	     -0.07250771	      0.57189817	      1.11763210	     -0.13465408	      0.76062456	      1.18748410	     -0.11912292	      1.39051321	      1.18748410	     -0.08286907	      1.39051321	      0.97792808	     -0.06733066	      1.16621474	      0.90807608	     -0.04143091	      0.88587026	      0.83822407	     -0.51791535	      6.46942645	      6.21593443	      0.00000000	      0.00000000	     -0.00000000	      0.00000000	      0.00000000	     80.49315605	    -14.20048465	     41.22386524	     22.52869863	     33.20296704	      0.00000000	      5.00000014	     73.37117258	    -13.85915072	     28.06475191	     31.25753999	     45.85046853	      0.00000000	      5.00000014
